<svg xmlns="http://www.w3.org/2000/svg" width="25.913" height="25.913" viewBox="0 0 25.913 25.913">
  <g id="Cart_2" data-name="Cart#2" transform="translate(0 0)">
    <rect id="Cart_2_background" data-name="Cart#2 background" width="25.913" height="25.913" fill="rgba(0,0,0,0)"/>
    <rect id="bound" width="25.913" height="25.913" fill="none"/>
    <path id="Path_30" data-name="Path 30" d="M6.478,2.766,1.909,8.249A1.08,1.08,0,0,1,.25,6.867L5.649.388a1.08,1.08,0,0,1,1.659,0l5.4,6.478a1.08,1.08,0,0,1-1.659,1.382Z" transform="translate(6.478 2.159)" fill="#515c6f" opacity="0.44"/>
    <path id="Combined_Shape" data-name="Combined Shape" d="M15.523,12.956H5.466A3.236,3.236,0,0,1,2.323,10.5L.033,1.342A1.079,1.079,0,0,1,1.08,0H19.909a1.079,1.079,0,0,1,1.047,1.342L18.666,10.5A3.236,3.236,0,0,1,15.523,12.956ZM10.415,3.239a1,1,0,0,0-1,1V8.717a1,1,0,0,0,1,1h.159a1,1,0,0,0,1-1V4.239a1,1,0,0,0-1-1Zm5.18.092a1,1,0,0,0-.965.741L13.47,8.4a1,1,0,0,0,.707,1.225l.154.041a1,1,0,0,0,1.224-.707l1.159-4.325a1,1,0,0,0-.707-1.225l-.154-.04A1,1,0,0,0,15.594,3.332Zm-10.2,0a1.023,1.023,0,0,0-.26.034l-.154.04a1,1,0,0,0-.706,1.225L5.432,8.957a1,1,0,0,0,1.225.707l.154-.041A1,1,0,0,0,7.519,8.4L6.359,4.072A1,1,0,0,0,5.395,3.332Z" transform="translate(2.462 9.717)" fill="#515c6f"/>
  </g>
</svg>
